<?xml version="1.0" encoding="utf-8"?>
<!-- Generator: Adobe Illustrator 17.1.0, SVG Export Plug-In . SVG Version: 6.00 Build 0)  -->
<!DOCTYPE svg PUBLIC "-//W3C//DTD SVG 1.1//EN" "http://www.w3.org/Graphics/SVG/1.1/DTD/svg11.dtd">
<svg version="1.1" id="Logo_1_" xmlns="http://www.w3.org/2000/svg" xmlns:xlink="http://www.w3.org/1999/xlink" x="0px" y="0px"
	 viewBox="0 0 150 48" enable-background="new 0 0 150 48" xml:space="preserve">
<g id="Logo">
	<g>
		<path fill-rule="evenodd" clip-rule="evenodd" fill="#FFFFFF" d="M23,3.5c-9,0-16.3,7.4-16.3,16.4c0,8.6,6.6,15.7,15,16.4
			c0.4,0,0.9,0.1,1.3,0.1h16.3V20l0,0c0,0,0-0.1,0-0.1C39.3,10.9,32,3.5,23,3.5z M33.8,18.4c-0.2,0.7-0.6,1.2-1.2,1.5
			c-0.4,0.2-0.8,0.3-1.3,0.3c-0.3,0-0.6-0.1-0.9-0.2C30.3,20,30.1,20,29.8,20c-0.7,0-1.6,0.2-2.8,0.7l0,0c-0.1,0.1-0.4,0.3-0.5,0.5
			c0,0,0,0,0,0l-0.9,3.2c0,0-0.1,0.4,0.1,0.7c1,1.4,1.8,2.2,2.5,2.4c0.7,0.1,1.3,0.5,1.7,1.1c0.3,0.5,0.4,1.2,0.2,1.8
			c-0.2,0.6-0.5,1.1-1.1,1.4c-0.3,0.2-0.7,0.3-1.1,0.3c-0.8,0-1.6-0.4-2-1.2c-0.4-0.6-0.4-1.4-0.1-2c0.2-0.6,0-1.8-0.7-3.4
			c0,0-0.1-0.3-0.4-0.4l-3.4-0.9c0,0-0.1,0-0.1,0c-0.2,0-0.4,0.1-0.4,0.1c-1.3,0.9-2.1,1.6-2.2,2.2c-0.1,0.6-0.4,1.1-0.9,1.4
			c-0.3,0.2-0.6,0.3-1,0.3c-0.7,0-1.3-0.4-1.7-1c-0.5-0.9-0.2-2.1,0.7-2.6c0.3-0.2,0.6-0.3,1-0.3c0.2,0,0.5,0,0.7,0.1
			c0.1,0,0.3,0.1,0.4,0.1c0.6,0,1.5-0.3,2.5-0.8c0.3-0.2,0.4-0.5,0.5-0.6l0.9-3.3c0.1-0.2-0.1-0.5-0.2-0.7c-1.4-1.9-2.5-3-3.4-3.2
			c-0.9-0.1-1.6-0.6-2.1-1.4c-0.4-0.7-0.5-1.5-0.3-2.2c0.2-0.7,0.7-1.4,1.3-1.8c0.4-0.3,0.9-0.4,1.4-0.4c1,0,2,0.6,2.5,1.5
			c0.4,0.8,0.5,1.7,0.2,2.5c-0.3,0.8,0,2.4,1,4.5c0,0,0.2,0.5,0.7,0.6l3.1,0.8c0.1,0,0.1,0,0.2,0c0.3,0,0.6-0.2,0.6-0.2l0,0
			c1.3-1,2.1-1.9,2.2-2.6c0.1-0.8,0.6-1.5,1.2-1.8c0.4-0.2,0.8-0.3,1.3-0.3c0.9,0,1.7,0.5,2.2,1.3C33.9,17,34,17.7,33.8,18.4z
			 M57,14.8c-2.7,0-4.3,0.5-5.7,1.4V8.4c0-0.4-0.3-0.8-0.8-0.8h-3.5c-0.4,0-0.8,0.3-0.8,0.8v27.4c0,0.4,0.3,0.8,0.8,0.8h3.5
			c0.4,0,0.8-0.4,0.8-0.8V20.4c1.6-0.8,3.1-1.3,4.4-1.3c2.5,0,3.1,0.8,3.1,4.1v12.5c0,0.4,0.3,0.8,0.8,0.8H63c0.4,0,0.8-0.4,0.8-0.8
			V23.2C63.8,18.6,62.2,14.8,57,14.8z M85,15.5h-3.8c-0.4,0-0.7,0.3-0.8,0.6l-4.1,16.3c0,0,0,0-0.1,0h-0.2c-0.2,0-0.4-0.2-0.5-0.8
			l-3.8-15.5c-0.1-0.3-0.4-0.7-0.7-0.7h-3.8c-0.5,0-0.7,0.2-0.7,0.6c0,0.1,0,0.2,0,0.3l4.9,17.4c0.8,2.9,2.2,3.2,3.3,3.2h0.6
			L74.9,38c-0.5,2-1.4,2.4-3,2.4c-1.1,0-3.2-0.2-4.3-0.2c0,0,0,0-0.1,0c-0.4,0-0.8,0.3-0.8,0.7v2.4c0,0.4,0.4,0.5,0.8,0.6
			c0.9,0.3,2.8,0.5,4,0.5c5.1,0,6.5-1.8,7.7-6l6.3-22.2c0-0.1,0-0.2,0-0.2C85.6,15.8,85.3,15.5,85,15.5z M97.6,14.8
			c-2.4,0-5.2,0.4-7.6,1c-0.9,0.2-1,0.5-1,1v26.5c0,0.4,0.3,0.8,0.8,0.8h3.5c0.4,0,0.8-0.3,0.8-0.8v-6.7c1.4,0.2,2.7,0.3,3.6,0.3
			c6.1,0,9-3.6,9-9.5v-2.9C106.6,18.5,103.7,14.8,97.6,14.8z M101.7,27.3c0,3.1-0.8,5.4-4,5.4c-0.9,0-2.6-0.1-3.6-0.3V19.2
			c0.7-0.2,2.3-0.3,3.6-0.3c3.2,0,4,2.3,4,5.4V27.3z M119.2,14.8c-5.8,0-9,3.7-9,9.7v2.8c0,7.5,5.4,9.5,9.1,9.5
			c3.4,0,4.9-0.2,7.3-0.6c0.7-0.1,0.8-0.4,0.8-1v-2.5c0-0.4-0.3-0.6-0.7-0.6h-0.1c-1.6,0.2-4.2,0.4-6.9,0.4c-3.6,0-4.5-2.6-4.5-4.8
			v-0.1h12.3c0.5,0,0.8-0.3,0.8-1v-2.1C128.2,18.8,125,14.8,119.2,14.8z M123.1,24h-8v-0.2c0-3,1.7-4.7,4-4.7s4,1.7,4,4.7V24z
			 M142.6,14.8c-1.5,0-3.5,0.4-5.4,1.8v-0.8c0-0.4-0.3-0.8-0.8-0.8h-3.3c-0.4,0-0.8,0.3-0.8,0.8v19.9c0,0.4,0.3,0.8,0.8,0.8h3.5
			c0.4,0,0.8-0.4,0.8-0.8V20.5c1.6-0.8,3.2-1.4,5.2-1.4c0.4,0,0.8-0.3,0.8-0.8v-2.7C143.3,15.2,143,14.8,142.6,14.8z"/>
	</g>
</g>
</svg>
